<mxfile host="app.diagrams.net" modified="2021-05-17T13:55:14.484Z" agent="5.0 (Windows)" etag="dXYV513Nry9xk75ATOoy" version="14.6.10" type="github">
  <diagram id="C5RBs43oDa-KdzZeNtuy" name="Page-1">
    <mxGraphModel dx="1038" dy="575" grid="1" gridSize="10" guides="1" tooltips="1" connect="1" arrows="1" fold="1" page="1" pageScale="1" pageWidth="827" pageHeight="1169" math="0" shadow="0">
      <root>
        <mxCell id="WIyWlLk6GJQsqaUBKTNV-0" />
        <mxCell id="WIyWlLk6GJQsqaUBKTNV-1" parent="WIyWlLk6GJQsqaUBKTNV-0" />
        <mxCell id="CDXeBftMXfuHAwcvjGAv-68" value="" style="rounded=0;whiteSpace=wrap;html=1;shadow=0;labelBackgroundColor=none;fontSize=15;" vertex="1" parent="WIyWlLk6GJQsqaUBKTNV-1">
          <mxGeometry x="10" y="10" width="810" height="60" as="geometry" />
        </mxCell>
        <mxCell id="mziQjSb-IbQIEWeBUJOA-1" value="Login" style="verticalLabelPosition=bottom;verticalAlign=top;html=1;shadow=0;dashed=0;strokeWidth=1;shape=mxgraph.android.phone2;strokeColor=#666666;flipH=0;fillColor=#f5f5f5;fontColor=#333333;fontSize=30;labelBackgroundColor=none;" parent="WIyWlLk6GJQsqaUBKTNV-1" vertex="1">
          <mxGeometry x="40" y="120" width="200" height="390" as="geometry" />
        </mxCell>
        <mxCell id="CDXeBftMXfuHAwcvjGAv-1" value="User" style="rounded=0;whiteSpace=wrap;html=1;shadow=0;labelBackgroundColor=none;fontSize=20;fillColor=#d5e8d4;strokeColor=#82b366;" vertex="1" parent="WIyWlLk6GJQsqaUBKTNV-1">
          <mxGeometry x="50" y="280" width="180" height="30" as="geometry" />
        </mxCell>
        <mxCell id="CDXeBftMXfuHAwcvjGAv-2" value="Input" style="rounded=0;whiteSpace=wrap;html=1;shadow=0;labelBackgroundColor=none;fontSize=15;fillColor=#d5e8d4;strokeColor=#82b366;" vertex="1" parent="WIyWlLk6GJQsqaUBKTNV-1">
          <mxGeometry x="120" y="20" width="80" height="40" as="geometry" />
        </mxCell>
        <mxCell id="CDXeBftMXfuHAwcvjGAv-3" value="Text&lt;br style=&quot;font-size: 15px;&quot;&gt;Output" style="rounded=0;whiteSpace=wrap;html=1;shadow=0;labelBackgroundColor=none;fontSize=15;fillColor=#dae8fc;strokeColor=#6c8ebf;" vertex="1" parent="WIyWlLk6GJQsqaUBKTNV-1">
          <mxGeometry x="240" y="20" width="80" height="40" as="geometry" />
        </mxCell>
        <mxCell id="CDXeBftMXfuHAwcvjGAv-4" value="&lt;div&gt;Graphic&lt;/div&gt;&lt;div&gt;Output&lt;br&gt;&lt;/div&gt;" style="rounded=0;whiteSpace=wrap;html=1;shadow=0;labelBackgroundColor=none;fontSize=15;fillColor=#ffe6cc;strokeColor=#d79b00;" vertex="1" parent="WIyWlLk6GJQsqaUBKTNV-1">
          <mxGeometry x="360" y="20" width="80" height="40" as="geometry" />
        </mxCell>
        <mxCell id="CDXeBftMXfuHAwcvjGAv-5" value="Button" style="rounded=0;whiteSpace=wrap;html=1;shadow=0;labelBackgroundColor=none;fontSize=15;fillColor=#f8cecc;strokeColor=#b85450;" vertex="1" parent="WIyWlLk6GJQsqaUBKTNV-1">
          <mxGeometry x="480" y="20" width="80" height="40" as="geometry" />
        </mxCell>
        <mxCell id="CDXeBftMXfuHAwcvjGAv-86" style="edgeStyle=orthogonalEdgeStyle;rounded=0;orthogonalLoop=1;jettySize=auto;html=1;entryX=0;entryY=0.503;entryDx=0;entryDy=0;entryPerimeter=0;fontSize=15;" edge="1" parent="WIyWlLk6GJQsqaUBKTNV-1" source="CDXeBftMXfuHAwcvjGAv-6" target="CDXeBftMXfuHAwcvjGAv-18">
          <mxGeometry relative="1" as="geometry">
            <Array as="points">
              <mxPoint x="560" y="395" />
              <mxPoint x="560" y="316" />
            </Array>
          </mxGeometry>
        </mxCell>
        <mxCell id="CDXeBftMXfuHAwcvjGAv-6" value="Make coffee" style="rounded=1;whiteSpace=wrap;html=1;shadow=0;labelBackgroundColor=none;fontSize=15;fillColor=#f8cecc;strokeColor=#b85450;" vertex="1" parent="WIyWlLk6GJQsqaUBKTNV-1">
          <mxGeometry x="360" y="380" width="120" height="30" as="geometry" />
        </mxCell>
        <mxCell id="CDXeBftMXfuHAwcvjGAv-7" value="&lt;div style=&quot;font-size: 20px&quot;&gt;Neat&lt;/div&gt;&lt;div style=&quot;font-size: 20px&quot;&gt;Logo&lt;br style=&quot;font-size: 20px&quot;&gt;&lt;/div&gt;" style="rounded=0;whiteSpace=wrap;html=1;shadow=0;labelBackgroundColor=none;fontSize=20;fillColor=#ffe6cc;strokeColor=#d79b00;" vertex="1" parent="WIyWlLk6GJQsqaUBKTNV-1">
          <mxGeometry x="50" y="180" width="180" height="60" as="geometry" />
        </mxCell>
        <mxCell id="CDXeBftMXfuHAwcvjGAv-10" value="Password" style="rounded=0;whiteSpace=wrap;html=1;shadow=0;labelBackgroundColor=none;fontSize=20;fillColor=#d5e8d4;strokeColor=#82b366;" vertex="1" parent="WIyWlLk6GJQsqaUBKTNV-1">
          <mxGeometry x="50" y="320" width="180" height="30" as="geometry" />
        </mxCell>
        <mxCell id="CDXeBftMXfuHAwcvjGAv-11" value="Home" style="verticalLabelPosition=bottom;verticalAlign=top;html=1;shadow=0;dashed=0;strokeWidth=1;shape=mxgraph.android.phone2;strokeColor=#666666;flipH=0;fillColor=#f5f5f5;fontColor=#333333;fontSize=30;labelBackgroundColor=none;" vertex="1" parent="WIyWlLk6GJQsqaUBKTNV-1">
          <mxGeometry x="320" y="120" width="200" height="390" as="geometry" />
        </mxCell>
        <mxCell id="CDXeBftMXfuHAwcvjGAv-13" value="&lt;div&gt;Welcome back,&lt;/div&gt;&lt;div&gt;Alice!&lt;br&gt;&lt;/div&gt;" style="rounded=0;whiteSpace=wrap;html=1;shadow=0;labelBackgroundColor=none;fontSize=15;fillColor=#dae8fc;strokeColor=#6c8ebf;" vertex="1" parent="WIyWlLk6GJQsqaUBKTNV-1">
          <mxGeometry x="330" y="180" width="180" height="40" as="geometry" />
        </mxCell>
        <mxCell id="CDXeBftMXfuHAwcvjGAv-87" style="edgeStyle=orthogonalEdgeStyle;rounded=0;orthogonalLoop=1;jettySize=auto;html=1;exitX=1;exitY=0.5;exitDx=0;exitDy=0;entryX=0;entryY=0.51;entryDx=0;entryDy=0;entryPerimeter=0;fontSize=15;" edge="1" parent="WIyWlLk6GJQsqaUBKTNV-1" source="CDXeBftMXfuHAwcvjGAv-14" target="CDXeBftMXfuHAwcvjGAv-11">
          <mxGeometry relative="1" as="geometry">
            <Array as="points">
              <mxPoint x="280" y="395" />
              <mxPoint x="280" y="319" />
            </Array>
          </mxGeometry>
        </mxCell>
        <mxCell id="CDXeBftMXfuHAwcvjGAv-14" value="Login" style="rounded=1;whiteSpace=wrap;html=1;shadow=0;labelBackgroundColor=none;fontSize=20;fillColor=#f8cecc;strokeColor=#b85450;glass=0;sketch=0;" vertex="1" parent="WIyWlLk6GJQsqaUBKTNV-1">
          <mxGeometry x="80" y="380" width="120" height="30" as="geometry" />
        </mxCell>
        <mxCell id="CDXeBftMXfuHAwcvjGAv-85" style="edgeStyle=orthogonalEdgeStyle;rounded=0;orthogonalLoop=1;jettySize=auto;html=1;exitX=1;exitY=0.5;exitDx=0;exitDy=0;entryX=-0.005;entryY=0.503;entryDx=0;entryDy=0;entryPerimeter=0;fontSize=15;" edge="1" parent="WIyWlLk6GJQsqaUBKTNV-1" source="CDXeBftMXfuHAwcvjGAv-15" target="CDXeBftMXfuHAwcvjGAv-80">
          <mxGeometry relative="1" as="geometry">
            <Array as="points">
              <mxPoint x="560" y="445" />
              <mxPoint x="560" y="560" />
              <mxPoint x="1120" y="560" />
              <mxPoint x="1120" y="316" />
            </Array>
          </mxGeometry>
        </mxCell>
        <mxCell id="CDXeBftMXfuHAwcvjGAv-15" value="View database" style="rounded=1;whiteSpace=wrap;html=1;shadow=0;labelBackgroundColor=none;fontSize=15;fillColor=#f8cecc;strokeColor=#b85450;" vertex="1" parent="WIyWlLk6GJQsqaUBKTNV-1">
          <mxGeometry x="360" y="430" width="120" height="30" as="geometry" />
        </mxCell>
        <mxCell id="CDXeBftMXfuHAwcvjGAv-16" value="&lt;div style=&quot;font-size: 15px;&quot;&gt;Our user brewed&lt;br style=&quot;font-size: 15px;&quot;&gt;&lt;/div&gt;&lt;div style=&quot;font-size: 15px;&quot;&gt;123 cups made from &lt;br style=&quot;font-size: 15px;&quot;&gt;&lt;/div&gt;&lt;div style=&quot;font-size: 15px;&quot;&gt;456 g of coffee and &lt;br style=&quot;font-size: 15px;&quot;&gt;&lt;/div&gt;&lt;div style=&quot;font-size: 15px;&quot;&gt;789 liters of water.&lt;/div&gt;" style="rounded=0;whiteSpace=wrap;html=1;shadow=0;labelBackgroundColor=none;fontSize=15;fillColor=#dae8fc;strokeColor=#6c8ebf;" vertex="1" parent="WIyWlLk6GJQsqaUBKTNV-1">
          <mxGeometry x="330" y="230" width="180" height="80" as="geometry" />
        </mxCell>
        <mxCell id="CDXeBftMXfuHAwcvjGAv-17" value="&lt;div&gt;Last brew by Bob &lt;br&gt;&lt;/div&gt;&lt;div&gt;on Saturday.&lt;/div&gt;" style="rounded=0;whiteSpace=wrap;html=1;shadow=0;labelBackgroundColor=none;fontSize=15;fillColor=#dae8fc;strokeColor=#6c8ebf;" vertex="1" parent="WIyWlLk6GJQsqaUBKTNV-1">
          <mxGeometry x="330" y="320" width="180" height="40" as="geometry" />
        </mxCell>
        <mxCell id="CDXeBftMXfuHAwcvjGAv-59" value="" style="edgeStyle=orthogonalEdgeStyle;rounded=0;orthogonalLoop=1;jettySize=auto;html=1;fontSize=15;" edge="1" parent="WIyWlLk6GJQsqaUBKTNV-1" source="CDXeBftMXfuHAwcvjGAv-18" target="CDXeBftMXfuHAwcvjGAv-58">
          <mxGeometry relative="1" as="geometry" />
        </mxCell>
        <mxCell id="CDXeBftMXfuHAwcvjGAv-18" value="Brew" style="verticalLabelPosition=bottom;verticalAlign=top;html=1;shadow=0;dashed=0;strokeWidth=1;shape=mxgraph.android.phone2;strokeColor=#666666;flipH=0;fillColor=#f5f5f5;fontColor=#333333;fontSize=30;labelBackgroundColor=none;" vertex="1" parent="WIyWlLk6GJQsqaUBKTNV-1">
          <mxGeometry x="600" y="120" width="200" height="390" as="geometry" />
        </mxCell>
        <mxCell id="CDXeBftMXfuHAwcvjGAv-28" value="Brewing Machine" style="rounded=0;whiteSpace=wrap;html=1;shadow=0;labelBackgroundColor=none;fontSize=20;fillColor=#e1d5e7;strokeColor=#9673a6;" vertex="1" parent="WIyWlLk6GJQsqaUBKTNV-1">
          <mxGeometry x="610" y="180" width="180" height="30" as="geometry" />
        </mxCell>
        <mxCell id="CDXeBftMXfuHAwcvjGAv-30" value="Dropdown" style="rounded=0;whiteSpace=wrap;html=1;shadow=0;labelBackgroundColor=none;fontSize=15;fillColor=#e1d5e7;strokeColor=#9673a6;" vertex="1" parent="WIyWlLk6GJQsqaUBKTNV-1">
          <mxGeometry x="600" y="20" width="80" height="40" as="geometry" />
        </mxCell>
        <mxCell id="CDXeBftMXfuHAwcvjGAv-31" value="Recipe" style="rounded=0;whiteSpace=wrap;html=1;shadow=0;labelBackgroundColor=none;fontSize=20;fillColor=#e1d5e7;strokeColor=#9673a6;" vertex="1" parent="WIyWlLk6GJQsqaUBKTNV-1">
          <mxGeometry x="610" y="220" width="180" height="30" as="geometry" />
        </mxCell>
        <mxCell id="CDXeBftMXfuHAwcvjGAv-32" value="Coffee Country" style="rounded=0;whiteSpace=wrap;html=1;shadow=0;labelBackgroundColor=none;fontSize=20;fillColor=#d5e8d4;strokeColor=#82b366;" vertex="1" parent="WIyWlLk6GJQsqaUBKTNV-1">
          <mxGeometry x="610" y="260" width="180" height="30" as="geometry" />
        </mxCell>
        <mxCell id="CDXeBftMXfuHAwcvjGAv-33" value="Coffee Name" style="rounded=0;whiteSpace=wrap;html=1;shadow=0;labelBackgroundColor=none;fontSize=20;fillColor=#d5e8d4;strokeColor=#82b366;" vertex="1" parent="WIyWlLk6GJQsqaUBKTNV-1">
          <mxGeometry x="610" y="300" width="180" height="30" as="geometry" />
        </mxCell>
        <mxCell id="CDXeBftMXfuHAwcvjGAv-34" value="Coffee Roastery" style="rounded=0;whiteSpace=wrap;html=1;shadow=0;labelBackgroundColor=none;fontSize=20;fillColor=#d5e8d4;strokeColor=#82b366;" vertex="1" parent="WIyWlLk6GJQsqaUBKTNV-1">
          <mxGeometry x="610" y="340" width="180" height="30" as="geometry" />
        </mxCell>
        <mxCell id="CDXeBftMXfuHAwcvjGAv-49" value="Coffee Parameter" style="rounded=0;whiteSpace=wrap;html=1;shadow=0;labelBackgroundColor=none;fontSize=20;fillColor=#d5e8d4;strokeColor=#82b366;" vertex="1" parent="WIyWlLk6GJQsqaUBKTNV-1">
          <mxGeometry x="610" y="380" width="180" height="30" as="geometry" />
        </mxCell>
        <mxCell id="CDXeBftMXfuHAwcvjGAv-50" value="Let&#39;s taste!" style="rounded=1;whiteSpace=wrap;html=1;shadow=0;labelBackgroundColor=none;fontSize=15;fillColor=#f8cecc;strokeColor=#b85450;" vertex="1" parent="WIyWlLk6GJQsqaUBKTNV-1">
          <mxGeometry x="640" y="430" width="120" height="30" as="geometry" />
        </mxCell>
        <mxCell id="CDXeBftMXfuHAwcvjGAv-81" value="" style="edgeStyle=orthogonalEdgeStyle;rounded=0;orthogonalLoop=1;jettySize=auto;html=1;fontSize=15;" edge="1" parent="WIyWlLk6GJQsqaUBKTNV-1" source="CDXeBftMXfuHAwcvjGAv-58">
          <mxGeometry relative="1" as="geometry">
            <mxPoint x="1160" y="315" as="targetPoint" />
            <Array as="points">
              <mxPoint x="1120" y="315" />
              <mxPoint x="1120" y="315" />
            </Array>
          </mxGeometry>
        </mxCell>
        <mxCell id="CDXeBftMXfuHAwcvjGAv-58" value="Taste" style="verticalLabelPosition=bottom;verticalAlign=top;html=1;shadow=0;dashed=0;strokeWidth=1;shape=mxgraph.android.phone2;strokeColor=#666666;flipH=0;fillColor=#f5f5f5;fontColor=#333333;fontSize=30;labelBackgroundColor=none;" vertex="1" parent="WIyWlLk6GJQsqaUBKTNV-1">
          <mxGeometry x="880" y="120" width="200" height="390" as="geometry" />
        </mxCell>
        <mxCell id="CDXeBftMXfuHAwcvjGAv-64" value="Slider" style="rounded=0;whiteSpace=wrap;html=1;shadow=0;labelBackgroundColor=none;fontSize=15;fillColor=#fff2cc;strokeColor=#d6b656;" vertex="1" parent="WIyWlLk6GJQsqaUBKTNV-1">
          <mxGeometry x="720" y="20" width="80" height="40" as="geometry" />
        </mxCell>
        <mxCell id="CDXeBftMXfuHAwcvjGAv-65" value="Legend" style="text;html=1;strokeColor=none;fillColor=none;align=center;verticalAlign=middle;whiteSpace=wrap;rounded=0;shadow=0;labelBackgroundColor=none;fontSize=15;" vertex="1" parent="WIyWlLk6GJQsqaUBKTNV-1">
          <mxGeometry x="40" y="30" width="40" height="20" as="geometry" />
        </mxCell>
        <mxCell id="CDXeBftMXfuHAwcvjGAv-72" value="Acidity" style="rounded=0;whiteSpace=wrap;html=1;shadow=0;labelBackgroundColor=none;fontSize=20;fillColor=#fff2cc;strokeColor=#d6b656;" vertex="1" parent="WIyWlLk6GJQsqaUBKTNV-1">
          <mxGeometry x="890" y="180" width="180" height="30" as="geometry" />
        </mxCell>
        <mxCell id="CDXeBftMXfuHAwcvjGAv-73" value="Sweet" style="rounded=0;whiteSpace=wrap;html=1;shadow=0;labelBackgroundColor=none;fontSize=20;fillColor=#fff2cc;strokeColor=#d6b656;" vertex="1" parent="WIyWlLk6GJQsqaUBKTNV-1">
          <mxGeometry x="890" y="220" width="180" height="30" as="geometry" />
        </mxCell>
        <mxCell id="CDXeBftMXfuHAwcvjGAv-74" value="Bitter" style="rounded=0;whiteSpace=wrap;html=1;shadow=0;labelBackgroundColor=none;fontSize=20;fillColor=#fff2cc;strokeColor=#d6b656;" vertex="1" parent="WIyWlLk6GJQsqaUBKTNV-1">
          <mxGeometry x="890" y="260" width="180" height="30" as="geometry" />
        </mxCell>
        <mxCell id="CDXeBftMXfuHAwcvjGAv-75" value="Body" style="rounded=0;whiteSpace=wrap;html=1;shadow=0;labelBackgroundColor=none;fontSize=20;fillColor=#fff2cc;strokeColor=#d6b656;" vertex="1" parent="WIyWlLk6GJQsqaUBKTNV-1">
          <mxGeometry x="890" y="300" width="180" height="30" as="geometry" />
        </mxCell>
        <mxCell id="CDXeBftMXfuHAwcvjGAv-76" value="Optional 1" style="rounded=0;whiteSpace=wrap;html=1;shadow=0;labelBackgroundColor=none;fontSize=20;fillColor=#fff2cc;strokeColor=#d6b656;" vertex="1" parent="WIyWlLk6GJQsqaUBKTNV-1">
          <mxGeometry x="890" y="340" width="180" height="30" as="geometry" />
        </mxCell>
        <mxCell id="CDXeBftMXfuHAwcvjGAv-77" value="Optional 2" style="rounded=0;whiteSpace=wrap;html=1;shadow=0;labelBackgroundColor=none;fontSize=20;fillColor=#fff2cc;strokeColor=#d6b656;" vertex="1" parent="WIyWlLk6GJQsqaUBKTNV-1">
          <mxGeometry x="890" y="380" width="180" height="30" as="geometry" />
        </mxCell>
        <mxCell id="CDXeBftMXfuHAwcvjGAv-79" value="Finish" style="rounded=1;whiteSpace=wrap;html=1;shadow=0;labelBackgroundColor=none;fontSize=15;fillColor=#f8cecc;strokeColor=#b85450;" vertex="1" parent="WIyWlLk6GJQsqaUBKTNV-1">
          <mxGeometry x="920" y="430" width="120" height="30" as="geometry" />
        </mxCell>
        <mxCell id="CDXeBftMXfuHAwcvjGAv-80" value="Database" style="verticalLabelPosition=bottom;verticalAlign=top;html=1;shadow=0;dashed=0;strokeWidth=1;shape=mxgraph.android.phone2;strokeColor=#666666;flipH=0;fillColor=#f5f5f5;fontColor=#333333;fontSize=30;labelBackgroundColor=none;" vertex="1" parent="WIyWlLk6GJQsqaUBKTNV-1">
          <mxGeometry x="1160" y="120" width="200" height="390" as="geometry" />
        </mxCell>
        <mxCell id="CDXeBftMXfuHAwcvjGAv-88" value="Nice plot showing coffee taste profile" style="rounded=0;whiteSpace=wrap;html=1;shadow=0;labelBackgroundColor=none;fontSize=15;fillColor=#ffe6cc;strokeColor=#d79b00;" vertex="1" parent="WIyWlLk6GJQsqaUBKTNV-1">
          <mxGeometry x="1170" y="170" width="180" height="150" as="geometry" />
        </mxCell>
        <mxCell id="CDXeBftMXfuHAwcvjGAv-90" style="edgeStyle=orthogonalEdgeStyle;rounded=0;orthogonalLoop=1;jettySize=auto;html=1;exitX=0.5;exitY=0;exitDx=0;exitDy=0;entryX=0.5;entryY=1;entryDx=0;entryDy=0;fontSize=15;" edge="1" parent="WIyWlLk6GJQsqaUBKTNV-1" source="CDXeBftMXfuHAwcvjGAv-89" target="CDXeBftMXfuHAwcvjGAv-88">
          <mxGeometry relative="1" as="geometry" />
        </mxCell>
        <mxCell id="CDXeBftMXfuHAwcvjGAv-89" value="Plot Controls" style="rounded=1;whiteSpace=wrap;html=1;shadow=0;labelBackgroundColor=none;fontSize=20;fillColor=#f8cecc;strokeColor=#b85450;" vertex="1" parent="WIyWlLk6GJQsqaUBKTNV-1">
          <mxGeometry x="1170" y="340" width="180" height="130" as="geometry" />
        </mxCell>
      </root>
    </mxGraphModel>
  </diagram>
</mxfile>
